<?xml version="1.0" encoding="utf-8"?>
<!-- Generator: Adobe Illustrator 28.4.1, SVG Export Plug-In . SVG Version: 6.00 Build 0)  -->
<svg width="174" height="30" version="1.1" id="Layer_1" xmlns="http://www.w3.org/2000/svg" xmlns:xlink="http://www.w3.org/1999/xlink" x="0px" y="0px"
	 viewBox="0 0 286.37 173.73" style="enable-background:new 0 0 286.37 173.73;" xml:space="preserve">
<style type="text/css">
	.st0{fill:#2F2F81;}
	.st1{fill:#F5A620;}
	.st2{fill:#FFFFFF;}
</style>
<g>
	<path class="st0" d="M1004.25,33.72v115.49c0,9.06,7.35,16.41,16.41,16.41h22.12l-0.82,63.93l89.34-63.93l88.32-145.08h-202.18
		C1010.15,20.54,1004.25,26.44,1004.25,33.72z"/>
	<path class="st1" d="M1304.5,20.54h-101.09l-65.21,143.5l166.3,1.58c9.36,0,16.96-7.59,16.96-16.96V37.49
		C1321.46,28.13,1313.86,20.54,1304.5,20.54z"/>
</g>
<g>
	<g>
		<path class="st2" d="M1070.39,50.31c-0.09-0.14-0.21-0.25-0.36-0.31c-0.15-0.07-0.3-0.1-0.46-0.1c-0.12,0-0.24,0.01-0.35,0.04
			c-0.11,0.03-0.22,0.07-0.31,0.13c-0.09,0.06-0.16,0.14-0.22,0.23c-0.06,0.1-0.08,0.21-0.08,0.34c0,0.1,0.02,0.19,0.05,0.27
			c0.03,0.08,0.08,0.15,0.16,0.21c0.07,0.06,0.17,0.12,0.29,0.18c0.12,0.05,0.27,0.11,0.45,0.16c0.17,0.06,0.34,0.11,0.5,0.18
			c0.16,0.06,0.31,0.14,0.43,0.24c0.12,0.1,0.22,0.22,0.3,0.36c0.07,0.15,0.11,0.33,0.11,0.55c0,0.22-0.04,0.42-0.13,0.58
			c-0.09,0.16-0.21,0.3-0.35,0.41c-0.15,0.11-0.31,0.19-0.5,0.24c-0.19,0.05-0.39,0.08-0.59,0.08c-0.13,0-0.26-0.01-0.39-0.03
			c-0.13-0.02-0.26-0.06-0.38-0.11c-0.12-0.05-0.23-0.11-0.34-0.19c-0.11-0.08-0.2-0.17-0.27-0.29l0.46-0.37
			c0.1,0.16,0.23,0.29,0.41,0.37c0.17,0.08,0.36,0.13,0.55,0.13c0.11,0,0.23-0.02,0.35-0.05c0.12-0.03,0.22-0.08,0.31-0.15
			c0.09-0.06,0.17-0.15,0.23-0.24c0.06-0.1,0.09-0.21,0.09-0.33c0-0.14-0.02-0.25-0.07-0.34c-0.05-0.09-0.12-0.16-0.22-0.22
			c-0.1-0.06-0.22-0.12-0.37-0.17c-0.15-0.05-0.32-0.11-0.52-0.18c-0.16-0.05-0.31-0.11-0.44-0.17c-0.14-0.07-0.25-0.15-0.35-0.24
			c-0.1-0.09-0.18-0.21-0.23-0.34c-0.06-0.13-0.09-0.29-0.09-0.48c0-0.21,0.04-0.4,0.13-0.56c0.08-0.16,0.2-0.29,0.34-0.4
			c0.14-0.11,0.31-0.19,0.49-0.24c0.18-0.06,0.37-0.08,0.57-0.08c0.25,0,0.48,0.04,0.7,0.12c0.21,0.08,0.4,0.21,0.56,0.41
			L1070.39,50.31z"/>
		<path class="st2" d="M1072.06,52.51c0,0.16,0.02,0.3,0.07,0.43c0.05,0.13,0.12,0.25,0.21,0.35c0.09,0.1,0.2,0.18,0.33,0.23
			c0.13,0.06,0.27,0.09,0.43,0.09c0.16,0,0.31-0.03,0.43-0.09c0.13-0.06,0.24-0.13,0.33-0.23c0.09-0.1,0.16-0.21,0.21-0.35
			c0.05-0.13,0.07-0.28,0.07-0.43c0-0.16-0.03-0.3-0.07-0.43c-0.05-0.13-0.12-0.25-0.21-0.35c-0.09-0.1-0.2-0.18-0.33-0.23
			c-0.13-0.06-0.27-0.09-0.43-0.09c-0.16,0-0.31,0.03-0.43,0.09c-0.13,0.06-0.24,0.13-0.33,0.23c-0.09,0.1-0.16,0.21-0.21,0.35
			C1072.08,52.21,1072.06,52.35,1072.06,52.51 M1071.53,52.51c0-0.23,0.04-0.44,0.12-0.63c0.08-0.19,0.19-0.35,0.33-0.49
			c0.14-0.14,0.31-0.24,0.5-0.32c0.19-0.08,0.41-0.11,0.63-0.11c0.23,0,0.44,0.04,0.64,0.11c0.2,0.08,0.36,0.18,0.5,0.32
			c0.14,0.14,0.25,0.3,0.33,0.49c0.08,0.19,0.12,0.4,0.12,0.63c0,0.23-0.04,0.44-0.12,0.63c-0.08,0.19-0.19,0.35-0.33,0.49
			c-0.14,0.14-0.31,0.24-0.5,0.32c-0.19,0.07-0.41,0.11-0.64,0.11c-0.23,0-0.44-0.04-0.63-0.11c-0.2-0.08-0.36-0.18-0.5-0.32
			c-0.14-0.14-0.25-0.3-0.33-0.49C1071.57,52.95,1071.53,52.74,1071.53,52.51"/>
		<path class="st2" d="M1075.72,51.45h-0.65v-0.42h0.65v-0.66c0-0.18,0.02-0.35,0.05-0.5c0.03-0.15,0.09-0.28,0.17-0.39
			c0.08-0.11,0.19-0.19,0.33-0.26c0.14-0.06,0.3-0.09,0.5-0.09c0.06,0,0.13,0.01,0.2,0.02c0.07,0.01,0.13,0.03,0.18,0.06l-0.07,0.44
			c-0.12-0.04-0.23-0.06-0.34-0.06c-0.13,0-0.23,0.02-0.3,0.07c-0.07,0.04-0.13,0.11-0.16,0.18c-0.04,0.08-0.06,0.17-0.06,0.28
			c-0.01,0.11-0.01,0.23-0.01,0.35v0.55h0.72v0.42h-0.72v2.53h-0.5V51.45z"/>
		<path class="st2" d="M1079.09,51.45h-0.88v1.47c0,0.1,0,0.19,0.01,0.27c0,0.08,0.02,0.15,0.05,0.21c0.03,0.06,0.07,0.11,0.13,0.15
			c0.06,0.04,0.14,0.05,0.25,0.05c0.07,0,0.15-0.01,0.22-0.03c0.08-0.02,0.15-0.04,0.22-0.08l0.02,0.45
			c-0.09,0.04-0.18,0.07-0.28,0.08c-0.1,0.02-0.2,0.03-0.3,0.03c-0.18,0-0.32-0.02-0.43-0.07c-0.11-0.05-0.19-0.11-0.25-0.2
			c-0.06-0.08-0.1-0.19-0.12-0.31c-0.02-0.12-0.03-0.26-0.03-0.41v-1.62h-0.65v-0.42h0.65V50.2h0.49v0.84h0.88V51.45z"/>
		<polygon class="st2" points="1082.89,53.98 1082.4,53.98 1081.56,51.71 1081.54,51.71 1080.79,53.98 1080.29,53.98 1079.32,51.03 
			1079.87,51.03 1080.55,53.3 1080.56,53.3 1081.33,51.03 1081.85,51.03 1082.63,53.3 1082.64,53.3 1083.32,51.03 1083.85,51.03 		
			"/>
		<g>
			<path class="st2" d="M1085.8,52.57c-0.32,0-0.57,0.04-0.75,0.13c-0.19,0.09-0.28,0.23-0.28,0.44c0,0.18,0.06,0.32,0.19,0.39
				c0.12,0.08,0.28,0.12,0.47,0.12c0.14,0,0.27-0.02,0.38-0.07c0.11-0.05,0.2-0.11,0.27-0.19c0.07-0.08,0.13-0.17,0.16-0.28
				c0.04-0.11,0.06-0.22,0.06-0.34v-0.19H1085.8z M1084.37,51.41c0.15-0.16,0.33-0.27,0.54-0.34c0.21-0.07,0.42-0.11,0.64-0.11
				c0.44,0,0.76,0.1,0.95,0.31c0.19,0.21,0.29,0.52,0.29,0.94v1.27c0,0.08,0,0.17,0.01,0.26c0.01,0.09,0.02,0.17,0.03,0.25h-0.48
				c-0.02-0.07-0.03-0.14-0.03-0.22c0-0.08,0-0.15,0-0.22h-0.01c-0.1,0.15-0.23,0.28-0.39,0.37c-0.16,0.1-0.36,0.15-0.59,0.15
				c-0.15,0-0.3-0.02-0.43-0.06s-0.25-0.09-0.35-0.17c-0.1-0.07-0.18-0.17-0.24-0.27c-0.06-0.11-0.09-0.24-0.09-0.38
				c0-0.24,0.06-0.43,0.19-0.57c0.13-0.14,0.29-0.24,0.47-0.31c0.19-0.07,0.39-0.11,0.61-0.13c0.22-0.02,0.42-0.02,0.6-0.02h0.19
				v-0.09c0-0.21-0.07-0.38-0.19-0.49c-0.13-0.11-0.31-0.16-0.54-0.16c-0.16,0-0.32,0.03-0.47,0.08c-0.15,0.05-0.29,0.13-0.41,0.24
				L1084.37,51.41z"/>
			<path class="st2" d="M1087.7,51.73c0-0.13-0.01-0.26-0.01-0.38c-0.01-0.12-0.01-0.22-0.01-0.32h0.47c0,0.08,0,0.16,0.01,0.24
				c0,0.08,0.01,0.16,0.01,0.25h0.01c0.03-0.07,0.08-0.14,0.14-0.21c0.06-0.07,0.14-0.13,0.22-0.18c0.08-0.05,0.18-0.09,0.29-0.13
				c0.11-0.03,0.22-0.05,0.34-0.05c0.03,0,0.07,0,0.1,0.01c0.03,0,0.07,0.01,0.1,0.02l-0.03,0.5c-0.08-0.02-0.17-0.04-0.27-0.04
				c-0.3,0-0.53,0.1-0.66,0.29s-0.21,0.46-0.21,0.8v1.44h-0.49V51.73z"/>
			<path class="st2" d="M1092.05,52.24c-0.01-0.25-0.09-0.45-0.25-0.61c-0.16-0.15-0.37-0.23-0.65-0.23c-0.28,0-0.5,0.08-0.67,0.23
				c-0.17,0.15-0.27,0.35-0.3,0.61H1092.05z M1092.48,53.45c-0.18,0.23-0.37,0.39-0.59,0.48c-0.21,0.09-0.46,0.14-0.73,0.14
				c-0.23,0-0.44-0.04-0.63-0.12c-0.19-0.08-0.34-0.19-0.47-0.33c-0.13-0.14-0.23-0.3-0.3-0.49c-0.07-0.19-0.11-0.39-0.11-0.61
				c0-0.23,0.04-0.44,0.12-0.63c0.07-0.19,0.18-0.36,0.32-0.49c0.14-0.14,0.3-0.24,0.48-0.32c0.19-0.08,0.39-0.11,0.61-0.11
				c0.21,0,0.4,0.04,0.57,0.1c0.17,0.07,0.32,0.17,0.45,0.3c0.13,0.13,0.22,0.29,0.29,0.49c0.07,0.19,0.1,0.41,0.1,0.65v0.16h-2.4
				c0.01,0.13,0.04,0.25,0.09,0.36c0.05,0.12,0.12,0.22,0.21,0.3c0.08,0.09,0.18,0.15,0.3,0.2c0.11,0.05,0.24,0.08,0.37,0.08
				c0.22,0,0.4-0.04,0.55-0.11c0.15-0.08,0.28-0.19,0.4-0.33L1092.48,53.45z"/>
			<path class="st2" d="M1097.34,50.31c-0.09-0.14-0.21-0.25-0.36-0.31c-0.15-0.07-0.3-0.1-0.46-0.1c-0.12,0-0.23,0.01-0.35,0.04
				c-0.11,0.03-0.22,0.07-0.31,0.13c-0.09,0.06-0.16,0.14-0.22,0.23c-0.05,0.1-0.08,0.21-0.08,0.34c0,0.1,0.02,0.19,0.05,0.27
				c0.03,0.08,0.08,0.15,0.16,0.21c0.07,0.06,0.17,0.12,0.29,0.18c0.12,0.05,0.27,0.11,0.45,0.16c0.17,0.06,0.34,0.11,0.51,0.18
				c0.16,0.06,0.31,0.14,0.43,0.24c0.12,0.1,0.22,0.22,0.3,0.36c0.07,0.15,0.11,0.33,0.11,0.55c0,0.22-0.04,0.42-0.13,0.58
				c-0.09,0.16-0.21,0.3-0.35,0.41c-0.15,0.11-0.31,0.19-0.5,0.24c-0.19,0.05-0.39,0.08-0.59,0.08c-0.13,0-0.26-0.01-0.39-0.03
				c-0.13-0.02-0.26-0.06-0.38-0.11c-0.12-0.05-0.23-0.11-0.34-0.19c-0.11-0.08-0.2-0.17-0.27-0.29l0.46-0.37
				c0.1,0.16,0.23,0.29,0.41,0.37c0.17,0.08,0.36,0.13,0.55,0.13c0.11,0,0.23-0.02,0.35-0.05c0.12-0.03,0.22-0.08,0.31-0.15
				c0.09-0.06,0.17-0.15,0.23-0.24c0.06-0.1,0.09-0.21,0.09-0.33c0-0.14-0.02-0.25-0.07-0.34c-0.05-0.09-0.12-0.16-0.22-0.22
				c-0.1-0.06-0.22-0.12-0.37-0.17c-0.15-0.05-0.32-0.11-0.52-0.18c-0.16-0.05-0.31-0.11-0.44-0.17c-0.14-0.07-0.25-0.15-0.35-0.24
				c-0.1-0.09-0.18-0.21-0.24-0.34c-0.06-0.13-0.09-0.29-0.09-0.48c0-0.21,0.04-0.4,0.13-0.56c0.08-0.16,0.2-0.29,0.34-0.4
				c0.14-0.11,0.31-0.19,0.49-0.24c0.18-0.06,0.37-0.08,0.57-0.08c0.26,0,0.49,0.04,0.7,0.12c0.21,0.08,0.4,0.21,0.56,0.41
				L1097.34,50.31z"/>
			<path class="st2" d="M1099.01,52.51c0,0.16,0.02,0.3,0.07,0.43c0.05,0.13,0.12,0.25,0.21,0.35c0.09,0.1,0.2,0.18,0.33,0.23
				c0.13,0.06,0.27,0.09,0.43,0.09c0.16,0,0.31-0.03,0.43-0.09c0.13-0.06,0.24-0.13,0.33-0.23c0.09-0.1,0.16-0.21,0.21-0.35
				c0.05-0.13,0.07-0.28,0.07-0.43c0-0.16-0.03-0.3-0.07-0.43c-0.05-0.13-0.12-0.25-0.21-0.35c-0.09-0.1-0.2-0.18-0.33-0.23
				c-0.13-0.06-0.27-0.09-0.43-0.09c-0.16,0-0.31,0.03-0.43,0.09c-0.13,0.06-0.24,0.13-0.33,0.23c-0.09,0.1-0.16,0.21-0.21,0.35
				C1099.03,52.21,1099.01,52.35,1099.01,52.51 M1098.47,52.51c0-0.23,0.04-0.44,0.12-0.63c0.08-0.19,0.19-0.35,0.33-0.49
				c0.14-0.14,0.31-0.24,0.5-0.32c0.19-0.08,0.41-0.11,0.63-0.11c0.23,0,0.44,0.04,0.64,0.11c0.2,0.08,0.36,0.18,0.5,0.32
				c0.14,0.14,0.25,0.3,0.33,0.49c0.08,0.19,0.12,0.4,0.12,0.63c0,0.23-0.04,0.44-0.12,0.63c-0.08,0.19-0.19,0.35-0.33,0.49
				c-0.14,0.14-0.31,0.24-0.5,0.32c-0.19,0.07-0.41,0.11-0.64,0.11c-0.23,0-0.44-0.04-0.63-0.11c-0.2-0.08-0.36-0.18-0.5-0.32
				c-0.14-0.14-0.25-0.3-0.33-0.49C1098.52,52.95,1098.47,52.74,1098.47,52.51"/>
		</g>
		<rect x="1102.46" y="49.22" class="st2" width="0.49" height="4.77"/>
		<g>
			<path class="st2" d="M1106.53,53.28c0,0.13,0,0.26,0.01,0.38c0.01,0.12,0.01,0.22,0.01,0.32h-0.47c0-0.08,0-0.16-0.01-0.24
				c0-0.08-0.01-0.16-0.01-0.25h-0.01c-0.03,0.07-0.08,0.14-0.14,0.21c-0.06,0.07-0.14,0.13-0.22,0.18
				c-0.09,0.05-0.18,0.09-0.29,0.13c-0.11,0.03-0.22,0.05-0.34,0.05c-0.19,0-0.36-0.03-0.5-0.09c-0.14-0.06-0.26-0.14-0.35-0.25
				s-0.16-0.23-0.21-0.38c-0.04-0.15-0.07-0.31-0.07-0.49v-1.82h0.5v1.77c0,0.25,0.05,0.44,0.16,0.59c0.11,0.14,0.28,0.21,0.51,0.21
				c0.16,0,0.3-0.03,0.42-0.08c0.12-0.06,0.21-0.13,0.29-0.23c0.07-0.1,0.13-0.22,0.16-0.36c0.04-0.14,0.05-0.29,0.05-0.46v-1.44
				h0.5V53.28z"/>
			<path class="st2" d="M1109.1,51.45h-0.88v1.47c0,0.1,0,0.19,0.01,0.27c0,0.08,0.02,0.15,0.05,0.21c0.03,0.06,0.07,0.11,0.13,0.15
				c0.06,0.04,0.14,0.05,0.25,0.05c0.07,0,0.15-0.01,0.22-0.03c0.07-0.02,0.15-0.04,0.21-0.08l0.02,0.45
				c-0.08,0.04-0.18,0.07-0.28,0.08c-0.1,0.02-0.2,0.03-0.29,0.03c-0.18,0-0.32-0.02-0.42-0.07c-0.11-0.05-0.19-0.11-0.25-0.2
				c-0.06-0.08-0.1-0.19-0.12-0.31s-0.03-0.26-0.03-0.41v-1.62h-0.65v-0.42h0.65V50.2h0.5v0.84h0.88V51.45z"/>
			<path class="st2" d="M1109.76,51.03h0.49v2.95h-0.49V51.03z M1109.64,49.88c0-0.1,0.04-0.18,0.1-0.25
				c0.07-0.07,0.16-0.11,0.26-0.11s0.19,0.04,0.26,0.11c0.07,0.07,0.11,0.16,0.11,0.25c0,0.11-0.03,0.19-0.1,0.26
				c-0.07,0.07-0.15,0.1-0.26,0.1s-0.19-0.03-0.26-0.1C1109.68,50.07,1109.64,49.99,1109.64,49.88"/>
			<path class="st2" d="M1111.6,52.51c0,0.16,0.02,0.3,0.07,0.43c0.05,0.13,0.12,0.25,0.21,0.35c0.09,0.1,0.2,0.18,0.33,0.23
				c0.13,0.06,0.27,0.09,0.44,0.09c0.16,0,0.31-0.03,0.43-0.09c0.13-0.06,0.24-0.13,0.33-0.23c0.09-0.1,0.16-0.21,0.21-0.35
				c0.05-0.13,0.07-0.28,0.07-0.43c0-0.16-0.02-0.3-0.07-0.43c-0.05-0.13-0.12-0.25-0.21-0.35c-0.09-0.1-0.2-0.18-0.33-0.23
				c-0.13-0.06-0.27-0.09-0.43-0.09c-0.16,0-0.31,0.03-0.44,0.09c-0.13,0.06-0.24,0.13-0.33,0.23c-0.09,0.1-0.16,0.21-0.21,0.35
				C1111.62,52.21,1111.6,52.35,1111.6,52.51 M1111.06,52.51c0-0.23,0.04-0.44,0.12-0.63c0.08-0.19,0.19-0.35,0.33-0.49
				c0.14-0.14,0.31-0.24,0.5-0.32c0.19-0.08,0.4-0.11,0.63-0.11c0.23,0,0.44,0.04,0.63,0.11c0.2,0.08,0.36,0.18,0.5,0.32
				c0.14,0.14,0.25,0.3,0.33,0.49c0.08,0.19,0.12,0.4,0.12,0.63c0,0.23-0.04,0.44-0.12,0.63c-0.08,0.19-0.19,0.35-0.33,0.49
				c-0.14,0.14-0.31,0.24-0.5,0.32c-0.19,0.07-0.4,0.11-0.63,0.11c-0.23,0-0.44-0.04-0.63-0.11c-0.2-0.08-0.36-0.18-0.5-0.32
				c-0.14-0.14-0.25-0.3-0.33-0.49C1111.1,52.95,1111.06,52.74,1111.06,52.51"/>
			<path class="st2" d="M1115.01,51.73c0-0.13-0.01-0.26-0.01-0.38c-0.01-0.12-0.01-0.22-0.01-0.32h0.47c0,0.08,0,0.16,0.01,0.24
				c0,0.08,0.01,0.16,0.01,0.25h0.01c0.03-0.07,0.08-0.14,0.14-0.21c0.06-0.07,0.14-0.13,0.22-0.18c0.08-0.05,0.18-0.09,0.29-0.13
				c0.11-0.03,0.22-0.05,0.34-0.05c0.2,0,0.36,0.03,0.5,0.09c0.14,0.06,0.26,0.14,0.35,0.25c0.09,0.11,0.16,0.23,0.21,0.38
				c0.04,0.15,0.07,0.31,0.07,0.49v1.82h-0.49v-1.77c0-0.25-0.06-0.44-0.17-0.59c-0.11-0.14-0.28-0.21-0.51-0.21
				c-0.16,0-0.3,0.03-0.42,0.08c-0.12,0.05-0.21,0.13-0.29,0.23c-0.07,0.1-0.13,0.22-0.16,0.36c-0.04,0.14-0.05,0.29-0.05,0.46v1.44
				h-0.49V51.73z"/>
			<path class="st2" d="M1118.6,53.21c0.1,0.12,0.2,0.22,0.32,0.29c0.12,0.07,0.26,0.11,0.44,0.11c0.08,0,0.15-0.01,0.23-0.03
				c0.08-0.02,0.15-0.04,0.21-0.08c0.06-0.04,0.11-0.09,0.15-0.14c0.04-0.06,0.06-0.12,0.06-0.2c0-0.08-0.02-0.14-0.05-0.2
				c-0.04-0.05-0.08-0.09-0.14-0.13c-0.06-0.04-0.13-0.06-0.2-0.08c-0.08-0.02-0.15-0.04-0.23-0.06c-0.14-0.03-0.27-0.06-0.4-0.1
				c-0.13-0.04-0.24-0.09-0.33-0.15c-0.09-0.06-0.17-0.14-0.23-0.24c-0.06-0.1-0.09-0.22-0.09-0.37c0-0.14,0.03-0.27,0.09-0.38
				s0.15-0.2,0.25-0.27c0.11-0.07,0.22-0.13,0.36-0.16c0.13-0.04,0.27-0.06,0.41-0.06c0.21,0,0.41,0.04,0.59,0.13
				c0.18,0.08,0.32,0.22,0.42,0.41l-0.41,0.27c-0.06-0.1-0.15-0.19-0.25-0.26c-0.1-0.07-0.23-0.1-0.38-0.1
				c-0.07,0-0.14,0.01-0.21,0.03c-0.07,0.02-0.13,0.04-0.19,0.08c-0.06,0.03-0.1,0.08-0.14,0.13c-0.04,0.05-0.05,0.11-0.05,0.18
				c0,0.06,0.02,0.12,0.06,0.16c0.04,0.04,0.09,0.08,0.16,0.12c0.07,0.03,0.15,0.06,0.24,0.09c0.09,0.03,0.18,0.05,0.28,0.06
				c0.13,0.03,0.26,0.06,0.37,0.1c0.12,0.04,0.22,0.09,0.31,0.16c0.09,0.07,0.16,0.15,0.21,0.25c0.05,0.1,0.07,0.22,0.07,0.37
				c0,0.17-0.03,0.31-0.1,0.43c-0.07,0.12-0.16,0.21-0.27,0.29c-0.11,0.07-0.24,0.13-0.38,0.16c-0.14,0.03-0.29,0.05-0.43,0.05
				c-0.25,0-0.47-0.04-0.66-0.12c-0.18-0.08-0.35-0.22-0.5-0.43L1118.6,53.21z"/>
		</g>
		<polygon class="st2" points="1035.71,33.99 1030.55,33.99 1030.55,46.43 1025.62,46.43 1025.62,33.99 1020.44,33.99 
			1020.44,30.07 1035.71,30.07 		"/>
		<g>
			<path class="st2" d="M1042.76,35.16L1042.76,35.16l3.46,11.27h5l-5.38-14.17c-0.5-1.33-1.73-2.2-3.08-2.2
				c-1.36,0-2.58,0.87-3.08,2.19l-5.41,14.17h5.03L1042.76,35.16z"/>
			<path class="st2" d="M1066.29,46.44v-8.62l-2.78,5.61c-0.14,0.28-0.41,0.45-0.71,0.45h-1.66c-0.3,0-0.57-0.17-0.71-0.45
				l-2.78-5.61v8.62h-4.93V30.07h3.14c1.38,0,2.65,0.8,3.3,2.09l2.82,5.61l2.84-5.62c0.65-1.28,1.91-2.08,3.29-2.08h3.12v16.37
				H1066.29z"/>
			<path class="st1" d="M1073.31,38.11c0-1,0.21-1.98,0.62-2.95c0.41-0.97,1.01-1.84,1.81-2.6c0.79-0.77,1.75-1.39,2.88-1.87
				s2.42-0.71,3.87-0.71c1.74,0,3.24,0.33,4.51,0.98c1.27,0.65,2.22,1.52,2.84,2.59l-3.77,2.44c-0.17-0.4-0.39-0.73-0.67-0.99
				c-0.28-0.26-0.59-0.47-0.92-0.62s-0.69-0.26-1.05-0.32c-0.36-0.06-0.71-0.09-1.05-0.09c-0.71,0-1.32,0.13-1.83,0.38
				c-0.52,0.25-0.94,0.58-1.26,0.99c-0.33,0.41-0.57,0.87-0.73,1.38c-0.16,0.51-0.24,1.03-0.24,1.53c0,0.57,0.09,1.11,0.28,1.64
				c0.19,0.52,0.46,0.98,0.81,1.38c0.35,0.4,0.79,0.72,1.3,0.96c0.51,0.24,1.09,0.36,1.73,0.36c0.34,0,0.68-0.03,1.04-0.1
				c0.35-0.07,0.7-0.18,1.02-0.35c0.33-0.16,0.62-0.37,0.88-0.62c0.26-0.25,0.47-0.56,0.62-0.93l4.02,2.19
				c-0.27,0.6-0.68,1.14-1.23,1.61c-0.55,0.48-1.17,0.88-1.87,1.2c-0.7,0.32-1.45,0.57-2.25,0.74c-0.8,0.17-1.58,0.25-2.34,0.25
				c-1.33,0-2.55-0.24-3.65-0.73c-1.1-0.48-2.06-1.13-2.86-1.92c-0.8-0.8-1.42-1.71-1.86-2.72
				C1073.53,40.19,1073.31,39.16,1073.31,38.11"/>
			<path class="st1" d="M1095.5,38.27c0,0.55,0.08,1.09,0.25,1.6c0.17,0.52,0.42,0.97,0.76,1.37c0.34,0.4,0.76,0.72,1.28,0.97
				c0.51,0.25,1.12,0.37,1.83,0.37s1.32-0.13,1.85-0.38c0.52-0.25,0.95-0.58,1.28-0.99c0.33-0.41,0.57-0.87,0.73-1.39
				c0.16-0.52,0.24-1.05,0.24-1.59c0-0.55-0.09-1.09-0.25-1.6c-0.17-0.51-0.43-0.97-0.77-1.36c-0.35-0.39-0.77-0.71-1.29-0.94
				c-0.51-0.24-1.12-0.36-1.81-0.36c-0.71,0-1.32,0.12-1.83,0.37c-0.51,0.25-0.94,0.57-1.28,0.98c-0.34,0.41-0.59,0.87-0.75,1.38
				C1095.58,37.21,1095.5,37.74,1095.5,38.27 M1099.57,46.57c-1.36,0-2.6-0.24-3.71-0.71c-1.11-0.48-2.06-1.1-2.86-1.88
				c-0.79-0.78-1.41-1.66-1.84-2.66c-0.44-1-0.66-2.03-0.66-3.09c0-1.08,0.23-2.11,0.68-3.11c0.45-1,1.09-1.88,1.91-2.64
				c0.82-0.76,1.79-1.37,2.91-1.82c1.12-0.45,2.35-0.68,3.68-0.68c1.36,0,2.6,0.24,3.71,0.71c1.11,0.48,2.06,1.11,2.86,1.89
				c0.79,0.78,1.4,1.67,1.83,2.67c0.43,1,0.64,2.02,0.64,3.07c0,1.08-0.23,2.11-0.68,3.1c-0.46,0.99-1.09,1.87-1.9,2.63
				c-0.81,0.76-1.77,1.37-2.89,1.83C1102.13,46.34,1100.9,46.57,1099.57,46.57"/>
			<path class="st1" d="M1115.75,38.39v8.05h-4.93V30.07h2.15c1.08,0,2.11,0.48,2.83,1.32l6.06,7.01v-8.32h4.93v16.37h-2.28
				c-1.04,0-2.04-0.46-2.75-1.26L1115.75,38.39z"/>
			<path class="st1" d="M1131.57,46.6c-0.51,0-0.95-0.11-1.33-0.33c-0.38-0.22-0.67-0.52-0.88-0.89c-0.21-0.37-0.32-0.78-0.32-1.22
				c0-0.68,0.23-1.25,0.68-1.73c0.46-0.48,1.07-0.72,1.85-0.72c0.47,0,0.9,0.11,1.28,0.32c0.38,0.22,0.69,0.51,0.92,0.88
				c0.24,0.37,0.35,0.78,0.35,1.24c0,0.45-0.12,0.85-0.35,1.22c-0.24,0.37-0.54,0.66-0.92,0.89
				C1132.46,46.49,1132.04,46.6,1131.57,46.6"/>
		</g>
	</g>
	<g>
		<path class="st2" d="M1123.94,49.63c0.28-0.05,0.65-0.09,1.12-0.09c0.58,0,1,0.13,1.27,0.38c0.25,0.21,0.4,0.54,0.4,0.95
			c0,0.41-0.12,0.73-0.35,0.97c-0.31,0.33-0.81,0.5-1.38,0.5c-0.17,0-0.34-0.01-0.47-0.04v1.81h-0.58V49.63z M1124.52,51.81
			c0.13,0.03,0.29,0.05,0.48,0.05c0.7,0,1.13-0.34,1.13-0.97c0-0.6-0.42-0.88-1.07-0.88c-0.25,0-0.45,0.02-0.55,0.05V51.81z"/>
		<path class="st2" d="M1127.5,49.58h0.58v4.03h1.93v0.49h-2.51V49.58z"/>
		<path class="st2" d="M1133.56,53.95c-0.21,0.11-0.64,0.21-1.19,0.21c-1.27,0-2.23-0.8-2.23-2.29c0-1.41,0.96-2.37,2.36-2.37
			c0.56,0,0.92,0.12,1.07,0.2l-0.14,0.48c-0.22-0.11-0.54-0.19-0.91-0.19c-1.06,0-1.76,0.68-1.76,1.86c0,1.11,0.64,1.82,1.74,1.82
			c0.36,0,0.72-0.07,0.95-0.19L1133.56,53.95z"/>
	</g>
</g>
<g>
	<g>
		<path class="st2" d="M1095.38,91.2c-2.86-1.68-5.46-3.04-7.81-4.1c-2.35-1.05-4.92-1.99-7.69-2.84c-2.77-0.84-5.5-1.26-8.19-1.26
			c-2.1,0-3.82,0.33-5.17,1c-1.35,0.67-2.02,1.79-2.02,3.37c0,1.5,0.67,2.71,2.02,3.62c1.34,0.92,3.25,1.75,5.73,2.5
			c2.48,0.75,5.44,1.66,8.88,2.75c5.54,1.67,10.33,3.58,14.37,5.74c4.03,2.17,7.14,4.93,9.33,8.31c2.18,3.37,3.28,7.85,3.28,13.42
			c0,5.33-0.97,9.8-2.9,13.43c-1.93,3.62-4.54,6.51-7.81,8.68c-3.28,2.17-6.93,3.73-10.96,4.68c-4.03,0.96-8.15,1.44-12.35,1.44
			c-4.28,0-8.76-0.44-13.42-1.32c-4.66-0.88-9.18-2.1-13.55-3.65c-4.37-1.55-8.36-3.38-11.97-5.48l10.59-21.55
			c3.36,2.02,6.43,3.65,9.2,4.92c2.77,1.26,5.86,2.39,9.26,3.4s6.83,1.51,10.27,1.51c2.69,0,4.56-0.34,5.61-1.02
			c1.05-0.68,1.58-1.58,1.58-2.71c0-1.75-0.93-3.11-2.77-4.07c-1.85-0.96-4.26-1.88-7.25-2.75c-2.98-0.87-6.28-1.9-9.89-3.07
			c-5.21-1.75-9.5-3.73-12.85-5.94c-3.36-2.21-5.84-4.84-7.44-7.88c-1.6-3.04-2.39-6.74-2.39-11.08c0-6.59,1.55-12.1,4.66-16.52
			c3.11-4.42,7.2-7.78,12.29-10.08c5.08-2.29,10.56-3.44,16.45-3.44c4.37,0,8.59,0.53,12.67,1.58c4.07,1.05,7.9,2.33,11.47,3.84
			c3.57,1.51,6.7,2.94,9.39,4.28L1095.38,91.2z"/>
		<path class="st2" d="M1186.62,151.32v-47.13l-15,33.14h-13.11l-15-33.14v47.13h-24.58V61.84h26.84l19.28,42.09l19.41-42.09h26.72
			v89.48H1186.62z"/>
		<path class="st2" d="M1280.76,91.2c-2.86-1.68-5.46-3.04-7.81-4.1c-2.35-1.05-4.91-1.99-7.69-2.84c-2.77-0.84-5.5-1.26-8.19-1.26
			c-2.1,0-3.82,0.33-5.17,1c-1.35,0.67-2.02,1.79-2.02,3.37c0,1.5,0.67,2.71,2.02,3.62c1.34,0.92,3.25,1.75,5.73,2.5
			c2.48,0.75,5.44,1.66,8.88,2.75c5.55,1.67,10.33,3.58,14.37,5.74c4.03,2.17,7.14,4.93,9.33,8.31c2.18,3.37,3.28,7.85,3.28,13.42
			c0,5.33-0.97,9.8-2.9,13.43c-1.93,3.62-4.54,6.51-7.81,8.68c-3.28,2.17-6.93,3.73-10.96,4.68c-4.03,0.96-8.15,1.44-12.35,1.44
			c-4.29,0-8.76-0.44-13.42-1.32c-4.66-0.88-9.18-2.1-13.55-3.65c-4.37-1.55-8.36-3.38-11.97-5.48l10.59-21.55
			c3.36,2.02,6.43,3.65,9.2,4.92c2.77,1.26,5.86,2.39,9.26,3.4s6.82,1.51,10.27,1.51c2.69,0,4.56-0.34,5.61-1.02
			c1.05-0.68,1.58-1.58,1.58-2.71c0-1.75-0.93-3.11-2.77-4.07c-1.85-0.96-4.27-1.88-7.25-2.75c-2.98-0.87-6.28-1.9-9.89-3.07
			c-5.21-1.75-9.5-3.73-12.86-5.94c-3.36-2.21-5.84-4.84-7.44-7.88c-1.6-3.04-2.39-6.74-2.39-11.08c0-6.59,1.55-12.1,4.66-16.52
			c3.11-4.42,7.2-7.78,12.29-10.08c5.08-2.29,10.56-3.44,16.45-3.44c4.37,0,8.59,0.53,12.67,1.58c4.07,1.05,7.9,2.33,11.47,3.84
			c3.57,1.51,6.7,2.94,9.39,4.28L1280.76,91.2z"/>
	</g>
</g>
<g>
	<path class="st0" d="M6.33,16.26v100.33c0,7.87,6.38,14.25,14.25,14.25L3.21,168.97l72.12-38.13l47.36-1.37L193.43,4.8H17.79
		C11.46,4.8,6.33,9.93,6.33,16.26z"/>
	<path class="st1" d="M267.17,4.8h-87.82L122.7,129.47l144.47,1.37c8.14,0,14.73-6.6,14.73-14.73V19.53
		C281.9,11.4,275.3,4.8,267.17,4.8z"/>
</g>
<g>
	<g>
		<path class="st2" d="M64.14,33.91c-0.08-0.12-0.18-0.21-0.31-0.27c-0.13-0.06-0.26-0.08-0.4-0.08c-0.1,0-0.2,0.01-0.3,0.04
			c-0.1,0.03-0.19,0.06-0.27,0.12c-0.08,0.05-0.14,0.12-0.19,0.2c-0.05,0.08-0.07,0.18-0.07,0.3c0,0.09,0.01,0.17,0.04,0.23
			c0.03,0.07,0.07,0.13,0.13,0.18c0.06,0.05,0.15,0.11,0.25,0.15c0.11,0.05,0.24,0.09,0.39,0.14c0.15,0.05,0.3,0.1,0.44,0.15
			c0.14,0.05,0.27,0.12,0.38,0.21c0.11,0.08,0.19,0.19,0.26,0.31c0.06,0.13,0.1,0.28,0.1,0.47c0,0.19-0.04,0.36-0.12,0.5
			c-0.08,0.14-0.18,0.26-0.31,0.35c-0.13,0.09-0.27,0.16-0.44,0.21c-0.17,0.05-0.34,0.07-0.51,0.07c-0.11,0-0.23-0.01-0.34-0.03
			c-0.11-0.02-0.22-0.05-0.33-0.09c-0.1-0.04-0.2-0.1-0.3-0.16c-0.09-0.07-0.17-0.15-0.24-0.25l0.4-0.32
			c0.08,0.14,0.2,0.25,0.35,0.32c0.15,0.07,0.31,0.11,0.48,0.11c0.1,0,0.2-0.01,0.3-0.04c0.1-0.03,0.19-0.07,0.27-0.13
			c0.08-0.06,0.15-0.13,0.2-0.21c0.05-0.08,0.08-0.18,0.08-0.29c0-0.12-0.02-0.22-0.06-0.29c-0.04-0.07-0.1-0.14-0.19-0.19
			c-0.08-0.06-0.19-0.1-0.32-0.15c-0.13-0.04-0.28-0.09-0.45-0.15c-0.14-0.04-0.27-0.09-0.39-0.15c-0.12-0.06-0.22-0.13-0.31-0.21
			c-0.09-0.08-0.15-0.18-0.2-0.3c-0.05-0.12-0.08-0.25-0.08-0.41c0-0.19,0.04-0.35,0.11-0.49c0.07-0.14,0.17-0.25,0.3-0.35
			c0.13-0.09,0.27-0.16,0.42-0.21c0.16-0.05,0.32-0.07,0.5-0.07c0.22,0,0.42,0.03,0.6,0.1c0.18,0.07,0.34,0.19,0.49,0.35
			L64.14,33.91z"/>
		<path class="st2" d="M65.59,35.82c0,0.13,0.02,0.26,0.06,0.38c0.04,0.11,0.1,0.22,0.18,0.3c0.08,0.09,0.18,0.15,0.29,0.2
			c0.11,0.05,0.24,0.07,0.38,0.07c0.14,0,0.27-0.02,0.38-0.07c0.11-0.05,0.21-0.12,0.29-0.2c0.08-0.09,0.14-0.19,0.18-0.3
			c0.04-0.12,0.06-0.24,0.06-0.38c0-0.13-0.02-0.26-0.06-0.38c-0.04-0.12-0.1-0.22-0.18-0.3c-0.08-0.09-0.18-0.15-0.29-0.2
			c-0.11-0.05-0.24-0.07-0.38-0.07c-0.14,0-0.27,0.03-0.38,0.07c-0.11,0.05-0.21,0.12-0.29,0.2c-0.08,0.09-0.14,0.19-0.18,0.3
			C65.61,35.56,65.59,35.68,65.59,35.82 M65.12,35.82c0-0.2,0.03-0.38,0.1-0.55c0.07-0.16,0.17-0.31,0.29-0.42
			c0.12-0.12,0.27-0.21,0.44-0.28c0.17-0.07,0.35-0.1,0.55-0.1c0.2,0,0.38,0.03,0.55,0.1c0.17,0.07,0.31,0.16,0.44,0.28
			c0.12,0.12,0.22,0.26,0.29,0.42c0.07,0.16,0.11,0.35,0.11,0.55c0,0.2-0.04,0.38-0.11,0.55c-0.07,0.16-0.17,0.31-0.29,0.42
			c-0.12,0.12-0.27,0.21-0.44,0.28c-0.17,0.07-0.35,0.1-0.55,0.1c-0.2,0-0.38-0.03-0.55-0.1c-0.17-0.07-0.31-0.16-0.44-0.28
			c-0.12-0.12-0.22-0.26-0.29-0.42C65.16,36.2,65.12,36.02,65.12,35.82"/>
		<path class="st2" d="M68.77,34.9h-0.56v-0.36h0.56v-0.58c0-0.16,0.01-0.3,0.04-0.43c0.03-0.13,0.08-0.24,0.15-0.34
			c0.07-0.09,0.17-0.17,0.28-0.22c0.12-0.05,0.26-0.08,0.44-0.08c0.06,0,0.11,0.01,0.18,0.02c0.06,0.01,0.11,0.03,0.15,0.05
			l-0.06,0.38c-0.1-0.04-0.2-0.05-0.29-0.05c-0.11,0-0.2,0.02-0.26,0.06c-0.06,0.04-0.11,0.09-0.14,0.16
			c-0.03,0.07-0.05,0.15-0.05,0.24c-0.01,0.09-0.01,0.2-0.01,0.31v0.48h0.63v0.36H69.2v2.2h-0.43V34.9z"/>
		<path class="st2" d="M71.7,34.9h-0.76v1.28c0,0.08,0,0.16,0.01,0.23c0,0.07,0.02,0.13,0.04,0.19c0.03,0.05,0.07,0.09,0.12,0.13
			c0.05,0.03,0.12,0.05,0.22,0.05c0.06,0,0.13-0.01,0.19-0.02c0.07-0.01,0.13-0.04,0.19-0.07l0.02,0.39
			c-0.07,0.03-0.16,0.06-0.25,0.07c-0.09,0.01-0.18,0.02-0.26,0.02c-0.15,0-0.28-0.02-0.37-0.06c-0.09-0.04-0.16-0.1-0.21-0.17
			c-0.05-0.07-0.09-0.16-0.1-0.27c-0.02-0.11-0.02-0.23-0.02-0.36V34.9h-0.56v-0.36h0.56v-0.73h0.43v0.73h0.76V34.9z"/>
		<polygon class="st2" points="75,37.1 74.57,37.1 73.84,35.13 73.83,35.13 73.18,37.1 72.73,37.1 71.9,34.54 72.37,34.54 
			72.96,36.51 72.97,36.51 73.64,34.54 74.09,34.54 74.77,36.51 74.78,36.51 75.37,34.54 75.83,34.54 		"/>
		<g>
			<path class="st2" d="M77.53,35.87c-0.28,0-0.49,0.04-0.66,0.12c-0.16,0.08-0.24,0.2-0.24,0.38c0,0.16,0.05,0.27,0.16,0.34
				c0.11,0.07,0.24,0.1,0.41,0.1c0.12,0,0.23-0.02,0.33-0.06c0.09-0.04,0.17-0.1,0.23-0.17c0.06-0.07,0.11-0.15,0.14-0.24
				c0.03-0.09,0.05-0.19,0.06-0.3v-0.16H77.53z M76.28,34.86c0.13-0.13,0.29-0.23,0.47-0.3c0.18-0.06,0.37-0.1,0.55-0.1
				c0.38,0,0.66,0.09,0.83,0.27c0.17,0.18,0.25,0.45,0.25,0.82v1.1c0,0.07,0,0.15,0.01,0.23c0.01,0.08,0.02,0.15,0.03,0.22h-0.41
				c-0.01-0.06-0.02-0.12-0.02-0.19c0-0.07,0-0.13,0-0.19h-0.01c-0.08,0.13-0.2,0.24-0.34,0.32c-0.14,0.08-0.31,0.13-0.51,0.13
				c-0.13,0-0.26-0.02-0.37-0.05c-0.12-0.03-0.22-0.08-0.3-0.15c-0.09-0.06-0.16-0.14-0.21-0.24c-0.05-0.09-0.08-0.2-0.08-0.33
				c0-0.21,0.06-0.38,0.17-0.5c0.11-0.12,0.25-0.21,0.41-0.27c0.16-0.06,0.34-0.09,0.53-0.11c0.19-0.01,0.36-0.02,0.52-0.02h0.17
				v-0.08c0-0.19-0.06-0.33-0.17-0.42c-0.11-0.09-0.27-0.14-0.47-0.14c-0.14,0-0.28,0.02-0.41,0.07c-0.13,0.05-0.25,0.12-0.36,0.21
				L76.28,34.86z"/>
			<path class="st2" d="M79.18,35.14c0-0.12,0-0.23-0.01-0.33c-0.01-0.1-0.01-0.2-0.01-0.28h0.41c0,0.07,0,0.14,0,0.21
				c0,0.07,0.01,0.14,0.01,0.21h0.01c0.03-0.06,0.07-0.12,0.12-0.18c0.05-0.06,0.12-0.11,0.19-0.16c0.07-0.05,0.16-0.08,0.25-0.11
				c0.09-0.03,0.19-0.04,0.3-0.04c0.03,0,0.06,0,0.09,0.01c0.03,0,0.06,0.01,0.09,0.02l-0.03,0.43c-0.07-0.02-0.15-0.03-0.23-0.03
				c-0.26,0-0.46,0.08-0.58,0.25s-0.18,0.4-0.18,0.7v1.25h-0.43V35.14z"/>
			<path class="st2" d="M82.95,35.59c-0.01-0.22-0.08-0.39-0.21-0.53c-0.14-0.13-0.32-0.2-0.56-0.2c-0.24,0-0.43,0.07-0.58,0.2
				c-0.15,0.13-0.23,0.31-0.26,0.53H82.95z M83.32,36.63c-0.15,0.2-0.32,0.34-0.51,0.41c-0.18,0.08-0.4,0.12-0.64,0.12
				c-0.2,0-0.39-0.04-0.55-0.11c-0.16-0.07-0.3-0.17-0.41-0.29c-0.11-0.12-0.2-0.26-0.26-0.43c-0.06-0.16-0.09-0.34-0.09-0.53
				c0-0.2,0.03-0.38,0.1-0.54c0.07-0.17,0.16-0.31,0.27-0.43c0.12-0.12,0.26-0.21,0.42-0.28c0.16-0.07,0.34-0.1,0.53-0.1
				c0.18,0,0.35,0.03,0.5,0.09c0.15,0.06,0.28,0.15,0.39,0.26c0.11,0.11,0.19,0.26,0.25,0.42c0.06,0.17,0.09,0.35,0.09,0.57v0.14
				h-2.08c0.01,0.11,0.03,0.21,0.08,0.31c0.05,0.1,0.11,0.19,0.18,0.26c0.07,0.08,0.16,0.13,0.26,0.18c0.1,0.04,0.21,0.07,0.33,0.07
				c0.19,0,0.34-0.03,0.47-0.1c0.13-0.07,0.24-0.16,0.35-0.29L83.32,36.63z"/>
			<path class="st2" d="M87.55,33.91c-0.08-0.12-0.18-0.21-0.31-0.27c-0.13-0.06-0.26-0.08-0.4-0.08c-0.1,0-0.2,0.01-0.3,0.04
				c-0.1,0.03-0.19,0.06-0.27,0.12c-0.08,0.05-0.14,0.12-0.19,0.2C86.03,33.99,86,34.09,86,34.2c0,0.09,0.01,0.17,0.04,0.23
				c0.03,0.07,0.07,0.13,0.14,0.18c0.06,0.05,0.15,0.11,0.25,0.15c0.11,0.05,0.24,0.09,0.39,0.14c0.15,0.05,0.3,0.1,0.44,0.15
				c0.14,0.05,0.27,0.12,0.38,0.21c0.11,0.08,0.19,0.19,0.26,0.31c0.06,0.13,0.1,0.28,0.1,0.47c0,0.19-0.04,0.36-0.12,0.5
				c-0.08,0.14-0.18,0.26-0.31,0.35c-0.13,0.09-0.27,0.16-0.44,0.21c-0.17,0.05-0.34,0.07-0.51,0.07c-0.11,0-0.23-0.01-0.34-0.03
				c-0.11-0.02-0.22-0.05-0.33-0.09c-0.11-0.04-0.2-0.1-0.3-0.16c-0.09-0.07-0.17-0.15-0.24-0.25l0.4-0.32
				c0.08,0.14,0.2,0.25,0.35,0.32c0.15,0.07,0.31,0.11,0.48,0.11c0.1,0,0.2-0.01,0.3-0.04c0.1-0.03,0.19-0.07,0.27-0.13
				c0.08-0.06,0.15-0.13,0.2-0.21c0.05-0.08,0.08-0.18,0.08-0.29c0-0.12-0.02-0.22-0.06-0.29c-0.04-0.07-0.1-0.14-0.19-0.19
				c-0.08-0.06-0.19-0.1-0.32-0.15c-0.13-0.04-0.28-0.09-0.45-0.15c-0.14-0.04-0.27-0.09-0.39-0.15c-0.12-0.06-0.22-0.13-0.31-0.21
				c-0.09-0.08-0.15-0.18-0.2-0.3c-0.05-0.12-0.07-0.25-0.07-0.41c0-0.19,0.04-0.35,0.11-0.49c0.07-0.14,0.17-0.25,0.3-0.35
				c0.12-0.09,0.27-0.16,0.42-0.21c0.16-0.05,0.32-0.07,0.5-0.07c0.22,0,0.42,0.03,0.6,0.1c0.18,0.07,0.34,0.19,0.49,0.35
				L87.55,33.91z"/>
			<path class="st2" d="M89,35.82c0,0.13,0.02,0.26,0.06,0.38c0.04,0.11,0.1,0.22,0.18,0.3c0.08,0.09,0.18,0.15,0.29,0.2
				c0.11,0.05,0.24,0.07,0.38,0.07c0.14,0,0.27-0.02,0.38-0.07c0.11-0.05,0.21-0.12,0.29-0.2c0.08-0.09,0.14-0.19,0.18-0.3
				c0.04-0.12,0.06-0.24,0.06-0.38c0-0.13-0.02-0.26-0.06-0.38c-0.04-0.12-0.1-0.22-0.18-0.3c-0.08-0.09-0.18-0.15-0.29-0.2
				c-0.11-0.05-0.24-0.07-0.38-0.07c-0.14,0-0.27,0.03-0.38,0.07c-0.11,0.05-0.21,0.12-0.29,0.2c-0.08,0.09-0.14,0.19-0.18,0.3
				C89.02,35.56,89,35.68,89,35.82 M88.53,35.82c0-0.2,0.04-0.38,0.11-0.55c0.07-0.16,0.17-0.31,0.29-0.42
				c0.12-0.12,0.27-0.21,0.44-0.28c0.17-0.07,0.35-0.1,0.55-0.1c0.2,0,0.38,0.03,0.55,0.1c0.17,0.07,0.31,0.16,0.44,0.28
				c0.12,0.12,0.22,0.26,0.29,0.42c0.07,0.16,0.11,0.35,0.11,0.55c0,0.2-0.04,0.38-0.11,0.55c-0.07,0.16-0.17,0.31-0.29,0.42
				c-0.12,0.12-0.27,0.21-0.44,0.28c-0.17,0.07-0.35,0.1-0.55,0.1c-0.2,0-0.38-0.03-0.55-0.1c-0.17-0.07-0.31-0.16-0.44-0.28
				c-0.12-0.12-0.22-0.26-0.29-0.42C88.57,36.2,88.53,36.02,88.53,35.82"/>
		</g>
		<rect x="92" y="32.96" class="st2" width="0.43" height="4.14"/>
		<g>
			<path class="st2" d="M95.53,36.49c0,0.12,0,0.23,0.01,0.33c0.01,0.1,0.01,0.2,0.01,0.28h-0.41c0-0.07,0-0.14-0.01-0.21
				c0-0.07,0-0.14,0-0.21h-0.01c-0.03,0.06-0.07,0.12-0.12,0.18c-0.05,0.06-0.12,0.11-0.19,0.16c-0.07,0.05-0.16,0.08-0.25,0.11
				c-0.09,0.03-0.19,0.04-0.3,0.04c-0.17,0-0.31-0.03-0.44-0.08c-0.12-0.05-0.23-0.12-0.31-0.21c-0.08-0.09-0.14-0.2-0.18-0.33
				s-0.06-0.27-0.06-0.42v-1.58h0.43v1.54c0,0.22,0.05,0.39,0.14,0.51c0.1,0.12,0.24,0.19,0.45,0.19c0.14,0,0.26-0.02,0.36-0.07
				c0.1-0.05,0.18-0.12,0.25-0.2c0.06-0.09,0.11-0.19,0.14-0.31c0.03-0.12,0.05-0.25,0.05-0.4v-1.25h0.43V36.49z"/>
			<path class="st2" d="M97.76,34.9H97v1.28c0,0.08,0,0.16,0,0.23c0,0.07,0.02,0.13,0.04,0.19c0.03,0.05,0.06,0.09,0.12,0.13
				c0.05,0.03,0.12,0.05,0.22,0.05c0.06,0,0.13-0.01,0.19-0.02c0.07-0.01,0.13-0.04,0.19-0.07l0.02,0.39
				c-0.07,0.03-0.15,0.06-0.25,0.07c-0.09,0.01-0.18,0.02-0.26,0.02c-0.15,0-0.28-0.02-0.37-0.06c-0.09-0.04-0.16-0.1-0.22-0.17
				c-0.05-0.07-0.08-0.16-0.1-0.27c-0.02-0.11-0.03-0.23-0.03-0.36V34.9h-0.56v-0.36h0.56v-0.73H97v0.73h0.76V34.9z"/>
			<path class="st2" d="M98.34,34.54h0.43v2.56h-0.43V34.54z M98.24,33.53c0-0.08,0.03-0.16,0.09-0.22
				c0.06-0.06,0.14-0.09,0.22-0.09c0.09,0,0.16,0.03,0.22,0.09c0.06,0.06,0.09,0.14,0.09,0.22c0,0.09-0.03,0.17-0.09,0.22
				c-0.06,0.06-0.13,0.09-0.23,0.09c-0.09,0-0.17-0.03-0.23-0.09C98.27,33.7,98.24,33.62,98.24,33.53"/>
			<path class="st2" d="M99.94,35.82c0,0.13,0.02,0.26,0.06,0.38c0.04,0.11,0.1,0.22,0.19,0.3c0.08,0.09,0.18,0.15,0.29,0.2
				c0.11,0.05,0.24,0.07,0.38,0.07c0.14,0,0.27-0.02,0.38-0.07c0.11-0.05,0.21-0.12,0.29-0.2c0.08-0.09,0.14-0.19,0.19-0.3
				c0.04-0.12,0.06-0.24,0.06-0.38c0-0.13-0.02-0.26-0.06-0.38c-0.04-0.12-0.1-0.22-0.19-0.3c-0.08-0.09-0.18-0.15-0.29-0.2
				c-0.11-0.05-0.24-0.07-0.38-0.07c-0.14,0-0.27,0.03-0.38,0.07c-0.11,0.05-0.21,0.12-0.29,0.2c-0.08,0.09-0.14,0.19-0.19,0.3
				C99.96,35.56,99.94,35.68,99.94,35.82 M99.47,35.82c0-0.2,0.04-0.38,0.11-0.55c0.07-0.16,0.16-0.31,0.29-0.42
				c0.12-0.12,0.27-0.21,0.44-0.28c0.17-0.07,0.35-0.1,0.55-0.1c0.2,0,0.38,0.03,0.55,0.1c0.17,0.07,0.31,0.16,0.44,0.28
				c0.12,0.12,0.22,0.26,0.29,0.42c0.07,0.16,0.11,0.35,0.11,0.55c0,0.2-0.04,0.38-0.11,0.55c-0.07,0.16-0.16,0.31-0.29,0.42
				c-0.12,0.12-0.27,0.21-0.44,0.28c-0.17,0.07-0.35,0.1-0.55,0.1c-0.2,0-0.38-0.03-0.55-0.1c-0.17-0.07-0.31-0.16-0.44-0.28
				c-0.12-0.12-0.22-0.26-0.29-0.42C99.51,36.2,99.47,36.02,99.47,35.82"/>
			<path class="st2" d="M102.9,35.14c0-0.12,0-0.23-0.01-0.33c-0.01-0.1-0.01-0.2-0.01-0.28h0.41c0,0.07,0,0.14,0,0.21
				c0,0.07,0.01,0.14,0.01,0.21h0.01c0.03-0.06,0.07-0.12,0.12-0.18c0.05-0.06,0.12-0.11,0.19-0.16c0.07-0.05,0.16-0.08,0.25-0.11
				c0.09-0.03,0.19-0.04,0.3-0.04c0.17,0,0.31,0.03,0.44,0.08c0.12,0.05,0.23,0.12,0.31,0.21c0.08,0.09,0.14,0.2,0.18,0.33
				s0.06,0.27,0.06,0.42v1.58h-0.43v-1.54c0-0.22-0.05-0.39-0.14-0.51c-0.1-0.12-0.24-0.19-0.45-0.19c-0.14,0-0.26,0.02-0.36,0.07
				c-0.1,0.05-0.18,0.11-0.25,0.2c-0.06,0.09-0.11,0.19-0.14,0.31c-0.03,0.12-0.05,0.25-0.05,0.4v1.25h-0.43V35.14z"/>
			<path class="st2" d="M106.02,36.42c0.08,0.11,0.18,0.19,0.28,0.25c0.1,0.06,0.23,0.09,0.38,0.09c0.07,0,0.13-0.01,0.2-0.02
				c0.07-0.01,0.13-0.04,0.19-0.07c0.06-0.03,0.1-0.07,0.13-0.12c0.03-0.05,0.05-0.11,0.05-0.18c0-0.07-0.02-0.13-0.05-0.17
				c-0.03-0.04-0.07-0.08-0.12-0.11c-0.05-0.03-0.11-0.06-0.18-0.07c-0.07-0.02-0.13-0.03-0.2-0.05c-0.12-0.03-0.24-0.05-0.35-0.09
				c-0.11-0.03-0.21-0.08-0.29-0.13c-0.08-0.05-0.15-0.12-0.2-0.21c-0.05-0.08-0.07-0.19-0.07-0.32c0-0.12,0.03-0.23,0.08-0.33
				s0.13-0.17,0.22-0.24c0.09-0.06,0.19-0.11,0.31-0.14c0.11-0.03,0.23-0.05,0.35-0.05c0.18,0,0.35,0.04,0.51,0.11
				c0.16,0.07,0.28,0.19,0.37,0.36l-0.36,0.24c-0.06-0.09-0.13-0.16-0.22-0.22c-0.09-0.06-0.2-0.08-0.33-0.08
				c-0.06,0-0.12,0.01-0.18,0.02c-0.06,0.01-0.11,0.04-0.16,0.07c-0.05,0.03-0.09,0.07-0.12,0.11c-0.03,0.05-0.05,0.1-0.05,0.16
				c0,0.05,0.02,0.1,0.05,0.14c0.03,0.04,0.08,0.07,0.14,0.1c0.06,0.03,0.13,0.05,0.21,0.08c0.08,0.02,0.16,0.04,0.25,0.05
				c0.11,0.02,0.22,0.05,0.33,0.08c0.1,0.04,0.19,0.08,0.27,0.14c0.08,0.06,0.14,0.13,0.18,0.22c0.04,0.09,0.07,0.2,0.07,0.32
				c0,0.15-0.03,0.27-0.09,0.37c-0.06,0.1-0.14,0.19-0.23,0.25c-0.1,0.06-0.21,0.11-0.33,0.14c-0.12,0.03-0.25,0.04-0.38,0.04
				c-0.22,0-0.41-0.03-0.57-0.1c-0.16-0.07-0.3-0.19-0.43-0.37L106.02,36.42z"/>
		</g>
		<polygon class="st2" points="34.01,19.73 29.53,19.73 29.53,30.54 25.25,30.54 25.25,19.73 20.74,19.73 20.74,16.32 34.01,16.32 
					"/>
		<g>
			<path class="st2" d="M40.13,20.75L40.13,20.75l3.01,9.79h4.35l-4.68-12.31c-0.44-1.15-1.5-1.91-2.68-1.91
				c-1.18,0-2.24,0.75-2.68,1.9l-4.7,12.31h4.37L40.13,20.75z"/>
			<path class="st2" d="M60.57,30.54v-7.49l-2.42,4.88c-0.12,0.24-0.36,0.39-0.61,0.39H56.1c-0.26,0-0.5-0.15-0.61-0.39l-2.42-4.88
				v7.49h-4.28V16.32h2.72c1.2,0,2.3,0.7,2.86,1.81l2.45,4.87l2.47-4.88c0.56-1.11,1.66-1.81,2.86-1.81h2.71v14.22H60.57z"/>
			<path class="st1" d="M66.68,23.31c0-0.87,0.18-1.72,0.54-2.56c0.36-0.84,0.88-1.6,1.57-2.26c0.69-0.67,1.52-1.21,2.5-1.62
				c0.98-0.41,2.1-0.62,3.36-0.62c1.51,0,2.81,0.28,3.92,0.85c1.1,0.57,1.93,1.32,2.47,2.25l-3.27,2.12
				c-0.15-0.35-0.34-0.63-0.58-0.86c-0.24-0.23-0.51-0.41-0.8-0.54c-0.29-0.13-0.6-0.23-0.91-0.28c-0.31-0.05-0.62-0.08-0.91-0.08
				c-0.61,0-1.15,0.11-1.59,0.33c-0.45,0.22-0.81,0.51-1.1,0.86c-0.28,0.35-0.5,0.75-0.64,1.2c-0.14,0.45-0.21,0.89-0.21,1.33
				c0,0.49,0.08,0.97,0.24,1.42c0.16,0.45,0.4,0.85,0.7,1.2c0.31,0.35,0.68,0.62,1.13,0.83c0.45,0.21,0.95,0.31,1.5,0.31
				c0.29,0,0.59-0.03,0.9-0.09c0.31-0.06,0.6-0.16,0.89-0.3c0.29-0.14,0.54-0.32,0.77-0.54c0.23-0.22,0.41-0.49,0.54-0.81l3.49,1.9
				c-0.23,0.52-0.59,0.99-1.06,1.4c-0.48,0.41-1.02,0.76-1.63,1.04c-0.61,0.28-1.26,0.49-1.95,0.64c-0.69,0.15-1.37,0.22-2.03,0.22
				c-1.16,0-2.21-0.21-3.17-0.63c-0.96-0.42-1.79-0.98-2.48-1.67c-0.7-0.69-1.23-1.48-1.61-2.36
				C66.87,25.11,66.68,24.22,66.68,23.31"/>
			<path class="st1" d="M85.95,23.45c0,0.48,0.07,0.94,0.22,1.39c0.15,0.45,0.37,0.85,0.66,1.19c0.29,0.35,0.66,0.63,1.11,0.84
				c0.45,0.21,0.98,0.32,1.59,0.32c0.61,0,1.15-0.11,1.6-0.33c0.45-0.22,0.82-0.51,1.11-0.86c0.29-0.35,0.5-0.76,0.64-1.21
				c0.14-0.45,0.21-0.91,0.21-1.38c0-0.48-0.07-0.94-0.22-1.39c-0.15-0.45-0.37-0.84-0.67-1.18c-0.3-0.34-0.67-0.61-1.12-0.82
				c-0.45-0.21-0.97-0.31-1.57-0.31c-0.61,0-1.14,0.11-1.59,0.32c-0.45,0.21-0.82,0.5-1.11,0.85c-0.29,0.35-0.51,0.75-0.65,1.2
				C86.02,22.53,85.95,22.98,85.95,23.45 M89.49,30.66c-1.19,0-2.26-0.21-3.23-0.62c-0.97-0.41-1.79-0.96-2.48-1.63
				c-0.69-0.67-1.22-1.44-1.6-2.31c-0.38-0.87-0.57-1.76-0.57-2.68c0-0.93,0.2-1.84,0.59-2.7c0.39-0.87,0.95-1.63,1.66-2.29
				c0.71-0.66,1.55-1.19,2.53-1.58c0.97-0.39,2.04-0.59,3.19-0.59c1.19,0,2.26,0.21,3.23,0.62c0.97,0.41,1.79,0.96,2.48,1.64
				c0.69,0.68,1.22,1.46,1.59,2.32c0.37,0.87,0.56,1.76,0.56,2.66c0,0.93-0.2,1.83-0.59,2.69c-0.4,0.86-0.94,1.62-1.65,2.28
				c-0.7,0.66-1.54,1.19-2.51,1.59C91.71,30.46,90.64,30.66,89.49,30.66"/>
			<path class="st1" d="M103.54,23.55v6.99h-4.28V16.32h1.87c0.94,0,1.83,0.42,2.46,1.14l5.27,6.09v-7.23h4.28v14.22h-1.98
				c-0.91,0-1.77-0.4-2.39-1.09L103.54,23.55z"/>
			<path class="st1" d="M117.28,30.68c-0.44,0-0.82-0.1-1.15-0.29c-0.33-0.19-0.59-0.45-0.77-0.77c-0.18-0.32-0.27-0.67-0.27-1.06
				c0-0.59,0.2-1.09,0.59-1.5c0.4-0.41,0.93-0.62,1.6-0.62c0.41,0,0.78,0.09,1.11,0.28c0.33,0.19,0.6,0.44,0.8,0.76
				c0.2,0.32,0.31,0.68,0.31,1.08c0,0.39-0.1,0.74-0.31,1.06c-0.21,0.32-0.47,0.58-0.8,0.77C118.06,30.58,117.69,30.68,117.28,30.68
				"/>
		</g>
	</g>
	<g>
		<path class="st2" d="M110.66,33.32c0.24-0.04,0.56-0.08,0.97-0.08c0.5,0,0.87,0.12,1.1,0.33c0.22,0.19,0.34,0.47,0.34,0.82
			c0,0.36-0.1,0.63-0.3,0.84c-0.27,0.29-0.7,0.43-1.2,0.43c-0.15,0-0.29-0.01-0.41-0.03v1.57h-0.51V33.32z M111.16,35.21
			c0.11,0.03,0.25,0.04,0.42,0.04c0.61,0,0.98-0.3,0.98-0.84c0-0.52-0.37-0.77-0.93-0.77c-0.22,0-0.39,0.02-0.48,0.04V35.21z"/>
		<path class="st2" d="M113.75,33.27h0.51v3.5h1.68v0.42h-2.18V33.27z"/>
		<path class="st2" d="M119.02,37.07c-0.19,0.09-0.56,0.19-1.04,0.19c-1.11,0-1.94-0.7-1.94-1.99c0-1.23,0.83-2.06,2.05-2.06
			c0.49,0,0.8,0.1,0.93,0.17l-0.12,0.41c-0.19-0.09-0.47-0.16-0.79-0.16c-0.92,0-1.53,0.59-1.53,1.62c0,0.96,0.55,1.58,1.51,1.58
			c0.31,0,0.62-0.06,0.83-0.16L119.02,37.07z"/>
	</g>
</g>
<g>
	<path class="st0" d="M237,72.22l11.42-21.89l-4.49-2.24c-2.14-1.07-4.63-2.2-7.4-3.38c-2.92-1.24-6.08-2.3-9.39-3.15
		c-3.48-0.9-7.13-1.35-10.84-1.35c-5.14,0-10.02,1.02-14.5,3.05c-4.65,2.1-8.46,5.23-11.32,9.3c-2.94,4.18-4.43,9.35-4.43,15.36
		c0,4.08,0.8,7.68,2.38,10.69c1.14,2.17,2.71,4.13,4.69,5.85l-7.26,14.77V40.69h-28.34l-11.55,25.05L134.5,40.69h-28.44v8.76
		l-2.72-1.36c-2.14-1.07-4.63-2.2-7.4-3.38c-2.92-1.24-6.08-2.3-9.39-3.15c-3.48-0.9-7.12-1.35-10.83-1.35
		c-5.14,0-10.02,1.02-14.5,3.05c-4.65,2.1-8.46,5.23-11.32,9.3c-2.94,4.18-4.43,9.35-4.43,15.36c0,4.08,0.8,7.68,2.38,10.69
		c1.14,2.17,2.71,4.13,4.69,5.85l-11.55,23.52l3.97,2.31c2.99,1.74,6.32,3.26,9.91,4.54c3.53,1.26,7.23,2.26,11.01,2.97
		c3.82,0.72,7.55,1.09,11.09,1.09c3.55,0,7.08-0.41,10.5-1.22c3.61-0.86,6.94-2.28,9.89-4.23c3.16-2.09,5.71-4.91,7.56-8.37
		c0.43-0.81,0.81-1.67,1.15-2.57v15.92h28.49v-17.84l3.27,7.23h16.3l3.27-7.23v17.84h28.49v-7.94c2.9,1.66,6.12,3.13,9.57,4.36
		c3.53,1.26,7.24,2.26,11.01,2.97c3.82,0.72,7.55,1.09,11.1,1.09c3.55,0,7.08-0.41,10.5-1.22c3.61-0.86,6.94-2.28,9.89-4.23
		c3.16-2.09,5.71-4.91,7.56-8.37c1.84-3.46,2.78-7.66,2.78-12.5c0-5.18-1.1-9.5-3.28-12.86C243.06,76.69,240.37,74.19,237,72.22z
		 M104.41,79.69c-1.94-3-4.63-5.51-8.01-7.47l9.65-18.5v29.24C105.6,81.79,105.05,80.69,104.41,79.69z"/>
</g>
<g>
	<path class="st2" d="M93.1,67.89c-2.17-1.27-4.14-2.31-5.93-3.11c-1.78-0.8-3.73-1.51-5.83-2.15c-2.1-0.64-4.17-0.96-6.21-0.96
		c-1.59,0-2.9,0.25-3.92,0.76c-1.02,0.51-1.53,1.36-1.53,2.56c0,1.14,0.51,2.05,1.53,2.75c1.02,0.7,2.47,1.33,4.35,1.9
		c1.88,0.57,4.12,1.26,6.74,2.08c4.21,1.26,7.84,2.72,10.9,4.36c3.06,1.64,5.41,3.74,7.07,6.3c1.66,2.56,2.49,5.95,2.49,10.18
		c0,4.04-0.73,7.44-2.2,10.18c-1.47,2.75-3.44,4.94-5.93,6.58c-2.48,1.64-5.26,2.83-8.32,3.55c-3.06,0.72-6.18,1.09-9.37,1.09
		c-3.25,0-6.64-0.33-10.18-1c-3.54-0.67-6.96-1.59-10.28-2.77c-3.31-1.18-6.34-2.56-9.08-4.16l8.03-16.34
		c2.55,1.53,4.88,2.77,6.98,3.73c2.1,0.96,4.44,1.82,7.03,2.58c2.58,0.77,5.18,1.15,7.79,1.15c2.04,0,3.46-0.26,4.25-0.78
		c0.8-0.52,1.19-1.2,1.19-2.05c0-1.33-0.7-2.36-2.1-3.09c-1.4-0.73-3.23-1.42-5.5-2.09c-2.26-0.66-4.76-1.44-7.5-2.32
		c-3.95-1.33-7.2-2.83-9.75-4.51c-2.55-1.68-4.43-3.67-5.64-5.98c-1.21-2.31-1.82-5.11-1.82-8.4c0-5,1.18-9.17,3.54-12.53
		c2.36-3.35,5.46-5.9,9.32-7.64c3.85-1.74,8.01-2.61,12.47-2.61c3.31,0,6.51,0.4,9.61,1.2c3.09,0.8,5.99,1.77,8.7,2.92
		c2.71,1.15,5.08,2.23,7.12,3.25L93.1,67.89z"/>
	<path class="st2" d="M162.3,113.48V77.73l-11.37,25.14h-9.94l-11.37-25.14v35.75h-18.64V45.62h20.36l14.62,31.92l14.72-31.92h20.26
		v67.86H162.3z"/>
	<path class="st2" d="M233.7,67.89c-2.17-1.27-4.14-2.31-5.93-3.11c-1.78-0.8-3.73-1.51-5.83-2.15c-2.1-0.64-4.17-0.96-6.21-0.96
		c-1.59,0-2.9,0.25-3.92,0.76c-1.02,0.51-1.53,1.36-1.53,2.56c0,1.14,0.51,2.05,1.53,2.75c1.02,0.7,2.47,1.33,4.35,1.9
		c1.88,0.57,4.13,1.26,6.74,2.08c4.21,1.26,7.84,2.72,10.9,4.36c3.06,1.64,5.41,3.74,7.07,6.3c1.66,2.56,2.48,5.95,2.48,10.18
		c0,4.04-0.73,7.44-2.2,10.18c-1.47,2.75-3.44,4.94-5.93,6.58c-2.49,1.64-5.26,2.83-8.32,3.55c-3.06,0.72-6.18,1.09-9.37,1.09
		c-3.25,0-6.64-0.33-10.18-1c-3.54-0.67-6.96-1.59-10.28-2.77c-3.31-1.18-6.34-2.56-9.08-4.16l8.03-16.34
		c2.55,1.53,4.87,2.77,6.98,3.73c2.1,0.96,4.44,1.82,7.03,2.58c2.58,0.77,5.18,1.15,7.79,1.15c2.04,0,3.46-0.26,4.25-0.78
		c0.8-0.52,1.2-1.2,1.2-2.05c0-1.33-0.7-2.36-2.1-3.09c-1.4-0.73-3.24-1.42-5.5-2.09c-2.26-0.66-4.76-1.44-7.5-2.32
		c-3.95-1.33-7.2-2.83-9.75-4.51c-2.55-1.68-4.43-3.67-5.64-5.98c-1.21-2.31-1.82-5.11-1.82-8.4c0-5,1.18-9.17,3.54-12.53
		c2.36-3.35,5.46-5.9,9.32-7.64c3.85-1.74,8.01-2.61,12.47-2.61c3.31,0,6.51,0.4,9.61,1.2c3.09,0.8,5.99,1.77,8.7,2.92
		c2.71,1.15,5.08,2.23,7.12,3.25L233.7,67.89z"/>
</g>
</svg>
